<?xml version="1.0" encoding="utf-8"?>
<!-- Generator: Adobe Illustrator 26.5.0, SVG Export Plug-In . SVG Version: 6.00 Build 0)  -->
<svg version="1.1" id="feuille" xmlns="http://www.w3.org/2000/svg" xmlns:xlink="http://www.w3.org/1999/xlink" x="0px" y="0px"
	 viewBox="0 0 48 32" style="enable-background:new 0 0 48 32;" xml:space="preserve">
<style type="text/css">
	.st78945636903{fill:#000;}
</style>
<path class="st78945636903" d="M47.53,0.57c-1.63-0.35-3.12-0.48-4.57-0.56c-1.44-0.06-2.83-0.05-4.18,0.04c-2.69,0.17-5.22,0.59-7.61,1.21
	C26.37,2.5,22.07,4.5,18.14,7.05c-3.92,2.57-7.47,5.71-10.52,9.61c-1.52,1.95-2.92,4.1-4.15,6.5c-0.61,1.2-1.18,2.47-1.7,3.82
	c-0.51,1.36-0.98,2.78-1.3,4.43c1.63,0.36,3.13,0.49,4.58,0.57c1.45,0.07,2.84,0.05,4.18-0.03c2.69-0.17,5.22-0.59,7.62-1.21
	c4.79-1.24,9.09-3.24,13.01-5.81c3.91-2.58,7.46-5.73,10.5-9.63c1.52-1.95,2.92-4.1,4.15-6.5c0.61-1.2,1.18-2.47,1.7-3.82
	C46.72,3.63,47.2,2.21,47.53,0.57"/>
</svg>
