<?xml version="1.0" encoding="utf-8"?>
<!-- Generator: Adobe Illustrator 26.5.0, SVG Export Plug-In . SVG Version: 6.00 Build 0)  -->
<svg version="1.1" id="Calque_1" xmlns="http://www.w3.org/2000/svg" xmlns:xlink="http://www.w3.org/1999/xlink" x="0px" y="0px"
	 viewBox="0 0 64 64" style="enable-background:new 0 0 64 64;" xml:space="preserve">
<path d="M31.6,2c-2.7,0-5,1.9-5.5,4.5c-0.2,0-0.3,0-0.5,0c-2,0-3.8,1.2-4.5,3h-5.6c-3.3,0-6,2.7-6,6V56c0,3.3,2.7,6,6,6h33
	c3.3,0,6-2.7,6-6V15.5c0-3.3-2.7-6-6-6h-6.4c-0.7-1.8-2.5-3-4.5-3c-0.2,0-0.3,0-0.5,0C36.6,3.9,34.4,2,31.6,2z M31.6,3.5
	c2.2,0,4,1.7,4.1,3.9c0,0.2,0.1,0.4,0.3,0.6c0.2,0.1,0.4,0.2,0.6,0.1C37,8,37.3,8,37.6,8c1.9,0,3.4,1.5,3.4,3.4c0,0.1,0,0.3,0,0.4
	H22.3c0-0.1,0-0.2,0-0.4c0-1.9,1.5-3.4,3.4-3.4c0.3,0,0.6,0,0.9,0.1c0.2,0.1,0.5,0,0.6-0.1c0.2-0.1,0.3-0.3,0.3-0.6
	C27.6,5.2,29.4,3.5,31.6,3.5z M31.6,5.8c-1,0-1.9,0.8-1.9,1.9s0.8,1.9,1.9,1.9c1,0,1.9-0.8,1.9-1.9S32.7,5.8,31.6,5.8z M31.6,6.5
	c0.6,0,1.1,0.5,1.1,1.1s-0.5,1.1-1.1,1.1s-1.1-0.5-1.1-1.1S31,6.5,31.6,6.5z M15.5,11h5.3c0,0.1,0,0.2,0,0.4c0,0.5,0.1,0.9,0.2,1.3
	c0.1,0.3,0.4,0.5,0.7,0.5h19.9c0.3,0,0.6-0.2,0.7-0.5c0.1-0.4,0.2-0.9,0.2-1.3c0-0.1,0-0.3,0-0.4h6c2.5,0,4.5,2,4.5,4.5V56
	c0,2.5-2,4.5-4.5,4.5h-33c-2.5,0-4.5-2-4.5-4.5V15.5C11,13,13,11,15.5,11z M17.4,15.5c-1.4,0-2.6,1.2-2.6,2.6v36
	c0,1.4,1.2,2.6,2.6,2.6h29.2c1.4,0,2.6-1.2,2.6-2.6v-3c0-0.2-0.2-0.4-0.4-0.4s-0.4,0.2-0.4,0.4v3c0,1-0.8,1.9-1.9,1.9H17.4
	c-1,0-1.9-0.8-1.9-1.9v-36c0-1,0.8-1.9,1.9-1.9h29.2c1,0,1.9,0.8,1.9,1.9v21.8c0,0.2,0.2,0.4,0.4,0.4s0.4-0.2,0.4-0.4V18.1
	c0-1.4-1.2-2.6-2.6-2.6H17.4z M44.4,25.2c-0.1,0-0.2,0-0.3,0.1l-3.5,3.5l-2-2c-0.1-0.1-0.4-0.2-0.5,0s-0.2,0.4,0,0.5c0,0,0,0,0,0
	l2.2,2.2c0.1,0.1,0.4,0.1,0.5,0l3.8-3.8c0.1-0.1,0.2-0.4,0-0.5C44.6,25.3,44.5,25.2,44.4,25.2z M19.6,27.5c-0.2,0-0.4,0.2-0.4,0.4
	c0,0.2,0.2,0.4,0.4,0.4c0,0,0,0,0,0h8.2c0.2,0,0.4-0.2,0.4-0.4c0-0.2-0.2-0.4-0.4-0.4c0,0,0,0,0,0H19.6z M30.1,27.5
	c-0.2,0-0.4,0.2-0.4,0.4c0,0.2,0.2,0.4,0.4,0.4c0,0,0,0,0,0h3.8c0.2,0,0.4-0.2,0.4-0.4c0-0.2-0.2-0.4-0.4-0.4c0,0,0,0,0,0H30.1z
	 M44.4,34.2c-0.1,0-0.2,0-0.3,0.1l-3.5,3.5l-2-2c-0.1-0.1-0.4-0.2-0.5,0s-0.2,0.4,0,0.5c0,0,0,0,0,0l2.2,2.2c0.1,0.1,0.4,0.1,0.5,0
	l3.8-3.8c0.1-0.1,0.2-0.4,0-0.5C44.6,34.3,44.5,34.2,44.4,34.2z M19.6,36.5c-0.2,0-0.4,0.2-0.4,0.4c0,0.2,0.2,0.4,0.4,0.4
	c0,0,0,0,0,0h14.2c0.2,0,0.4-0.2,0.4-0.4c0-0.2-0.2-0.4-0.4-0.4c0,0,0,0,0,0H19.6z M48.9,41.8c-0.2,0-0.4,0.2-0.4,0.4v3
	c0,0.2,0.2,0.4,0.4,0.4s0.4-0.2,0.4-0.4v-3C49.2,41.9,49.1,41.8,48.9,41.8z M44.4,43.2c-0.1,0-0.2,0-0.3,0.1l-3.5,3.5l-2-2
	c-0.1-0.1-0.4-0.2-0.5,0s-0.2,0.4,0,0.5c0,0,0,0,0,0l2.2,2.2c0.1,0.1,0.4,0.1,0.5,0l3.8-3.8c0.1-0.1,0.2-0.4,0-0.5
	C44.6,43.3,44.5,43.2,44.4,43.2z M19.6,45.5c-0.2,0-0.4,0.2-0.4,0.4c0,0.2,0.2,0.4,0.4,0.4c0,0,0,0,0,0h6.8c0.2,0,0.4-0.2,0.4-0.4
	c0-0.2-0.2-0.4-0.4-0.4c0,0,0,0,0,0H19.6z M28.6,45.5c-0.2,0-0.4,0.2-0.4,0.4c0,0.2,0.2,0.4,0.4,0.4c0,0,0,0,0,0h5.2
	c0.2,0,0.4-0.2,0.4-0.4c0-0.2-0.2-0.4-0.4-0.4c0,0,0,0,0,0H28.6z M48.9,47c-0.2,0-0.4,0.2-0.4,0.4v1.5c0,0.2,0.2,0.4,0.4,0.4
	s0.4-0.2,0.4-0.4v-1.5C49.2,47.2,49.1,47,48.9,47z"/>
</svg>
