<?xml version="1.0" encoding="utf-8"?>
<!-- Generator: Adobe Illustrator 26.5.0, SVG Export Plug-In . SVG Version: 6.00 Build 0)  -->
<svg version="1.1" id="Calque_1" xmlns="http://www.w3.org/2000/svg" xmlns:xlink="http://www.w3.org/1999/xlink" x="0px" y="0px"
	 viewBox="0 0 64 64" style="enable-background:new 0 0 64 64;" xml:space="preserve">
<path d="M7,8c-1.7,0-3,1.3-3,3v42c0,1.7,1.3,3,3,3h50c1.7,0,3-1.3,3-3V11c0-1.7-1.3-3-3-3H7z M7,10h50c0.6,0,1,0.4,1,1v42
	c0,0.6-0.4,1-1,1H7c-0.6,0-1-0.4-1-1V20h41c0.6,0,1-0.4,1-1s-0.4-1-1-1H6v-7C6,10.4,6.4,10,7,10z M10,12c-0.6,0-1,0.4-1,1v2
	c0,0.6,0.4,1,1,1s1-0.4,1-1v-2C11,12.4,10.6,12,10,12z M15,12c-0.6,0-1,0.4-1,1v2c0,0.6,0.4,1,1,1s1-0.4,1-1v-2
	C16,12.4,15.6,12,15,12z M20,12c-0.6,0-1,0.4-1,1v2c0,0.6,0.4,1,1,1s1-0.4,1-1v-2C21,12.4,20.6,12,20,12z M25,12c-0.6,0-1,0.4-1,1v2
	c0,0.6,0.4,1,1,1s1-0.4,1-1v-2C26,12.4,25.6,12,25,12z M30,12c-0.6,0-1,0.4-1,1v2c0,0.6,0.4,1,1,1s1-0.4,1-1v-2
	C31,12.4,30.6,12,30,12z M35,12c-0.6,0-1,0.4-1,1v2c0,0.6,0.4,1,1,1s1-0.4,1-1v-2C36,12.4,35.6,12,35,12z M40,12c-0.6,0-1,0.4-1,1v2
	c0,0.6,0.4,1,1,1s1-0.4,1-1v-2C41,12.4,40.6,12,40,12z M45,12c-0.6,0-1,0.4-1,1v2c0,0.6,0.4,1,1,1s1-0.4,1-1v-2
	C46,12.4,45.6,12,45,12z M50,12c-0.6,0-1,0.4-1,1v2c0,0.6,0.4,1,1,1s1-0.4,1-1v-2C51,12.4,50.6,12,50,12z M55,12c-0.6,0-1,0.4-1,1v2
	c0,0.6,0.4,1,1,1s1-0.4,1-1v-2C56,12.4,55.6,12,55,12z M51,18c-0.6,0-1,0.4-1,1s0.4,1,1,1h4c0.6,0,1-0.4,1-1s-0.4-1-1-1H51z M31,24
	c-0.6,0-1,0.4-1,1v15h-4v-3c0-0.6-0.4-1-1-1h-6c-0.6,0-1,0.4-1,1v11h-5c-0.6,0-1,0.4-1,1s0.4,1,1,1h36c0.6,0,1-0.4,1-1s-0.4-1-1-1
	h-5V31c0-0.6-0.4-1-1-1h-5v-5c0-0.6-0.4-1-1-1H31z M32,26h4v22h-4V26z M38,32h4v16h-4V32z M20,38h4v10h-4V38z M26,42h4v6h-4V42z"/>
</svg>
