<svg fill="#000000" xmlns="http://www.w3.org/2000/svg"  viewBox="0 0 64 64" width="64px" height="64px"><path d="M 39.103516 1.9980469 A 1 1 0 0 0 38.789062 2.0507812 L 32.429688 4.171875 L 32.429688 4.1855469 A 0.983 0.983 0 0 0 32.037109 4.4160156 L 22.457031 14 L 4.9296875 14 A 2.969 2.969 0 0 0 2 17 L 2 49 A 2.969 2.969 0 0 0 4.9296875 52 L 24.820312 52 L 24.152344 56 L 23 56 A 1 1 0 0 0 22.199219 56.400391 L 19.199219 60.400391 A 1 1 0 0 0 20 62 L 44 62 A 1 1 0 0 0 44.800781 60.400391 L 41.800781 56.400391 A 1 1 0 0 0 41 56 L 39.847656 56 L 39.179688 52 L 59.070312 52 A 2.969 2.969 0 0 0 62 49 L 62 17 A 2.969 2.969 0 0 0 59.070312 14 L 33.769531 14 L 37.699219 10.072266 C 37.710219 10.061266 37.714609 10.047156 37.724609 10.035156 A 1.021 1.021 0 0 0 37.886719 9.7929688 C 37.899719 9.7649687 37.914781 9.7389844 37.925781 9.7089844 C 37.925781 9.7009844 37.9345 9.6935469 37.9375 9.6855469 L 40.058594 3.3164062 A 1 1 0 0 0 39.103516 1.9980469 z M 37.525391 4.5800781 L 36.550781 7.5117188 L 34.650391 5.6113281 L 34.599609 5.5566406 L 37.525391 4.5800781 z M 32.748047 6.5371094 L 33.453125 7.2441406 L 10.828125 29.871094 L 10.121094 29.164062 L 32.748047 6.5371094 z M 34.867188 8.6601562 L 35.572266 9.3691406 L 12.949219 31.992188 L 12.242188 31.285156 L 34.867188 8.6601562 z M 4.9296875 16 L 20.457031 16 L 8 28.457031 L 5.8789062 30.578125 A 3 3 0 0 0 5.8789062 34.820312 L 7.2929688 36.234375 A 3 3 0 0 0 11.535156 36.234375 L 13.65625 34.113281 L 31.771484 16 L 59.070312 16 A 0.98 0.98 0 0 1 60 17 L 60 44 L 4 44 L 4 17 A 0.98 0.98 0 0 1 4.9296875 16 z M 51 19 A 1 1 0 0 0 50.386719 19.210938 L 46.652344 22.109375 A 11 11 0 1 0 39 41 A 10.953 10.953 0 0 0 46.033203 38.447266 L 48.292969 40.707031 A 1 1 0 0 0 49 41 L 58 41 L 58 39 L 49.414062 39 L 47.447266 37.033203 A 10.95 10.95 0 0 0 47.955078 23.634766 L 51.34375 21 L 56 21 L 56 19 L 51 19 z M 39 21 A 8.951 8.951 0 0 1 45.052734 23.359375 L 41.386719 26.210938 L 42.613281 27.789062 L 46.378906 24.861328 A 8.957 8.957 0 0 1 46.025391 35.611328 L 39.707031 29.292969 A 1 1 0 0 0 39 29 L 30.058594 29 A 9.01 9.01 0 0 1 39 21 z M 52 27 L 52 29 L 58 29 L 58 27 L 52 27 z M 8.7070312 30.578125 L 11.535156 33.40625 L 10.121094 34.820312 A 1.023 1.023 0 0 1 8.7070312 34.820312 L 7.2929688 33.40625 A 1 1 0 0 1 7.2929688 31.992188 L 8.7070312 30.578125 z M 30.058594 31 L 38.585938 31 L 44.611328 37.025391 A 8.948 8.948 0 0 1 39 39 A 9.01 9.01 0 0 1 30.058594 31 z M 52 31 L 52 33 L 58 33 L 58 31 L 52 31 z M 18 32 L 18 34 L 26 34 L 26 32 L 18 32 z M 52 35 L 52 37 L 58 37 L 58 35 L 52 35 z M 18 36 L 18 38 L 26 38 L 26 36 L 18 36 z M 18 40 L 18 42 L 26 42 L 26 40 L 18 40 z M 4 46 L 60 46 L 60 49 A 0.98 0.98 0 0 1 59.070312 50 L 4.9296875 50 A 0.98 0.98 0 0 1 4 49 L 4 46 z M 31 47 L 31 49 L 33 49 L 33 47 L 31 47 z M 26.847656 52 L 37.152344 52 L 37.820312 56 L 26.179688 56 L 26.847656 52 z M 23.5 58 L 40.5 58 L 42 60 L 22 60 L 23.5 58 z"/></svg>