<?xml version="1.0" encoding="utf-8"?>
<svg version="1.1" id="Calque_1" xmlns="http://www.w3.org/2000/svg" xmlns:xlink="http://www.w3.org/1999/xlink" x="0px" y="0px"
	 viewBox="0 0 64 64" style="enable-background:new 0 0 64 64;" xml:space="preserve">
<style type="text/css">
	<!-- .st054841254848{fill:#228BE6;} -->
</style>
<path class="st054841254848" d="M28.9,3l-1.9,4.8c-3.1,0.6-5.9,1.8-8.4,3.5l-4.8-2.1l-4.4,4.4l2.1,4.8c-1.7,2.5-2.8,5.4-3.5,8.4L3,28.9v6.3
	l4.8,1.9c0.6,3.1,1.8,5.9,3.5,8.4l-2.1,4.8l4.4,4.4l4.8-2.1c2.5,1.7,5.4,2.8,8.4,3.5l1.9,4.8h6.3l1.9-4.8c3.1-0.6,5.9-1.8,8.4-3.5
	l4.8,2.1l4.4-4.4l-2.1-4.8c1.7-2.5,2.8-5.4,3.5-8.4l4.8-1.9v-6.3l-4.8-1.9c-0.6-3.1-1.8-5.9-3.5-8.4l2.1-4.8l-4.4-4.4l-4.8,2.1
	c-2.5-1.7-5.4-2.8-8.4-3.5L35.1,3H28.9z M30,4.7h4l1.8,4.6l0.5,0.1c3.2,0.6,6.1,1.8,8.7,3.6l0.4,0.3l4.5-1.9l2.8,2.8l-1.9,4.5L51,19
	c1.8,2.6,3,5.5,3.6,8.7l0.1,0.5l4.6,1.8v4l-4.6,1.8l-0.1,0.5C54,39.5,52.8,42.4,51,45l-0.3,0.4l1.9,4.5l-2.8,2.8l-4.5-1.9L45,51
	c-2.6,1.8-5.5,3-8.7,3.6l-0.5,0.1L34,59.3h-4l-1.8-4.6l-0.5-0.1C24.5,54,21.6,52.8,19,51l-0.4-0.3l-4.5,1.9l-2.8-2.8l1.9-4.5L13,45
	c-1.8-2.6-3-5.5-3.6-8.7l-0.1-0.5L4.7,34v-4l4.6-1.8l0.1-0.5c0.6-3.2,1.8-6.1,3.6-8.7l0.3-0.4l-1.9-4.5l2.8-2.8l4.5,1.9L19,13
	c2.6-1.8,5.5-3,8.7-3.6l0.5-0.1L30,4.7z M32,15.8c-0.5,0-0.9,0.4-0.9,0.9s0.4,0.9,0.9,0.9s0.9-0.4,0.9-0.9S32.5,15.8,32,15.8z
	 M28,16.3C28,16.3,28,16.3,28,16.3c-0.1,0-0.2,0-0.2,0c-0.5,0.1-0.7,0.6-0.6,1c0.1,0.5,0.6,0.7,1,0.6c0.5-0.1,0.7-0.6,0.6-1
	C28.8,16.6,28.4,16.3,28,16.3z M36,16.3c-0.4,0-0.7,0.3-0.8,0.6c-0.1,0.5,0.1,0.9,0.6,1c0.5,0.1,0.9-0.1,1-0.6
	c0.1-0.5-0.1-0.9-0.6-1C36.1,16.3,36,16.3,36,16.3z M24.3,17.8c-0.1,0-0.3,0-0.4,0.1c-0.2,0.1-0.3,0.3-0.4,0.5
	c-0.1,0.2,0,0.5,0.1,0.6c0.1,0.2,0.3,0.3,0.5,0.4c0.2,0.1,0.4,0,0.6-0.1c0.4-0.2,0.5-0.8,0.3-1.2C24.9,18,24.6,17.8,24.3,17.8z
	 M39.6,17.9c-0.3,0-0.6,0.2-0.7,0.4c-0.1,0.2-0.1,0.4-0.1,0.6c0.1,0.2,0.2,0.4,0.4,0.5c0.4,0.2,0.9,0.1,1.2-0.3
	c0.2-0.4,0.1-0.9-0.3-1.2C40,17.9,39.8,17.8,39.6,17.9z M21.2,20.3c-0.2,0-0.5,0.1-0.6,0.2c-0.3,0.3-0.3,0.9,0,1.2
	c0.3,0.3,0.9,0.3,1.2,0c0.3-0.3,0.3-0.9,0-1.2C21.6,20.4,21.4,20.3,21.2,20.3z M42.9,20.3c-0.2,0-0.5,0.1-0.6,0.2
	c-0.3,0.3-0.3,0.9,0,1.2c0.3,0.3,0.9,0.3,1.2,0c0.3-0.3,0.3-0.9,0-1.2C43.3,20.4,43.1,20.3,42.9,20.3z M45.3,23.5
	c-0.1,0-0.3,0-0.4,0.1c-0.2,0.1-0.3,0.3-0.4,0.5c-0.1,0.2,0,0.4,0.1,0.6c0.2,0.4,0.8,0.5,1.2,0.3c0.4-0.2,0.5-0.8,0.3-1.2
	C45.9,23.6,45.6,23.5,45.3,23.5z M18.7,23.5c-0.3,0-0.6,0.2-0.7,0.4c-0.1,0.2-0.1,0.4-0.1,0.6c0.1,0.2,0.2,0.4,0.4,0.5
	c0.4,0.2,0.9,0.1,1.2-0.3c0.2-0.4,0.1-0.9-0.3-1.2C19,23.5,18.8,23.5,18.7,23.5z M32,25.2c-3.8,0-6.8,3.1-6.8,6.8s3.1,6.8,6.8,6.8
	s6.8-3.1,6.8-6.8S35.8,25.2,32,25.2z M32,26.9c2.8,0,5.1,2.3,5.1,5.1s-2.3,5.1-5.1,5.1s-5.1-2.3-5.1-5.1S29.2,26.9,32,26.9z
	 M17.2,27.2c-0.4,0-0.7,0.3-0.8,0.6c-0.1,0.5,0.1,0.9,0.6,1c0.5,0.1,0.9-0.1,1-0.6c0.1-0.5-0.1-0.9-0.6-1
	C17.3,27.2,17.2,27.2,17.2,27.2z M46.8,27.2C46.8,27.2,46.8,27.2,46.8,27.2c-0.1,0-0.2,0-0.2,0c-0.5,0.1-0.7,0.6-0.6,1
	c0.1,0.5,0.6,0.7,1,0.6c0.5-0.1,0.7-0.6,0.6-1C47.6,27.4,47.2,27.2,46.8,27.2z M16.6,31.1c-0.5,0-0.9,0.4-0.9,0.9s0.4,0.9,0.9,0.9
	s0.9-0.4,0.9-0.9S17.1,31.1,16.6,31.1z M47.4,31.1c-0.5,0-0.9,0.4-0.9,0.9s0.4,0.9,0.9,0.9s0.9-0.4,0.9-0.9S47.8,31.1,47.4,31.1z
	 M17.2,35.1c-0.1,0-0.2,0-0.3,0c-0.5,0.1-0.7,0.6-0.6,1c0.1,0.5,0.6,0.7,1,0.6s0.7-0.6,0.6-1C17.9,35.4,17.6,35.1,17.2,35.1z
	 M46.8,35.1c-0.4,0-0.7,0.3-0.8,0.6c-0.1,0.2,0,0.5,0.1,0.6c0.1,0.2,0.3,0.3,0.5,0.4c0.5,0.1,0.9-0.1,1-0.6c0.1-0.5-0.1-0.9-0.6-1
	C47,35.1,46.9,35.1,46.8,35.1z M18.7,38.8c-0.1,0-0.3,0-0.4,0.1c-0.4,0.2-0.5,0.8-0.3,1.2c0.1,0.2,0.3,0.3,0.5,0.4
	c0.2,0.1,0.5,0,0.6-0.1c0.2-0.1,0.3-0.3,0.4-0.5c0.1-0.2,0-0.5-0.1-0.6C19.3,39,19,38.8,18.7,38.8z M45.3,38.8
	c-0.3,0-0.6,0.2-0.7,0.4c-0.1,0.2-0.1,0.4-0.1,0.6c0.1,0.2,0.2,0.4,0.4,0.5c0.4,0.2,0.9,0.1,1.2-0.3c0.2-0.4,0.1-0.9-0.3-1.2
	C45.6,38.9,45.4,38.8,45.3,38.8z M21.2,42c-0.2,0-0.5,0.1-0.6,0.2c-0.3,0.3-0.3,0.9,0,1.2c0.3,0.3,0.9,0.3,1.2,0
	c0.3-0.3,0.3-0.9,0-1.2C21.6,42.1,21.4,42,21.2,42z M42.9,42c-0.2,0-0.5,0.1-0.6,0.2c-0.3,0.3-0.3,0.9,0,1.2c0.3,0.3,0.9,0.3,1.2,0
	c0.3-0.3,0.3-0.9,0-1.2C43.3,42.1,43.1,42,42.9,42z M39.7,44.4c-0.1,0-0.3,0-0.4,0.1c-0.4,0.2-0.5,0.8-0.3,1.2
	c0.2,0.4,0.8,0.5,1.2,0.3c0.2-0.1,0.3-0.3,0.4-0.5c0.1-0.2,0-0.4-0.1-0.6C40.3,44.6,40,44.4,39.7,44.4z M24.3,44.4
	c-0.3,0-0.6,0.2-0.7,0.4c-0.2,0.4-0.1,0.9,0.3,1.2c0.2,0.1,0.4,0.1,0.6,0.1c0.2-0.1,0.4-0.2,0.5-0.4c0.1-0.2,0.1-0.4,0.1-0.6
	c-0.1-0.2-0.2-0.4-0.4-0.5C24.6,44.5,24.4,44.4,24.3,44.4z M28,46c-0.4,0-0.7,0.3-0.8,0.6c-0.1,0.5,0.1,0.9,0.6,1s0.9-0.1,1-0.6
	c0.1-0.2,0-0.5-0.1-0.6c-0.1-0.2-0.3-0.3-0.5-0.4C28.2,46,28.1,46,28,46z M36,46c-0.1,0-0.2,0-0.3,0c-0.5,0.1-0.7,0.6-0.6,1
	c0.1,0.5,0.6,0.7,1,0.6c0.5-0.1,0.7-0.6,0.6-1C36.7,46.3,36.4,46,36,46z M32,46.5c-0.5,0-0.9,0.4-0.9,0.9s0.4,0.9,0.9,0.9
	s0.9-0.4,0.9-0.9S32.5,46.5,32,46.5z"/>
</svg>
