<?xml version="1.0" encoding="utf-8"?>
<svg version="1.1" id="visitor-mention-svg" xmlns="http://www.w3.org/2000/svg" xmlns:xlink="http://www.w3.org/1999/xlink" x="0px" y="0px"
	 viewBox="0 0 126.17 28.29" style="enable-background:new 0 0 126.17 28.29;" xml:space="preserve">
<g>
	<path d="M22.3,2.96L9.62,24.72L0,8.3h4.66l1.33,2.31l3.64,6.12c1.27-2.18,2.61-4.47,4.01-6.87s2.74-4.7,4.01-6.9H22.3z"/>
	<path d="M28.12,2.92v22.44h-4.05V2.92H28.12z"/>
	<path d="M40.05,2.92v4.05h-1.58c-0.72,0-1.33,0.25-1.82,0.75c-0.5,0.5-0.74,1.11-0.74,1.84s0.25,1.34,0.75,1.84
		c0.5,0.5,1.11,0.75,1.83,0.75h0.78c0.9,0,1.76,0.18,2.58,0.53c0.81,0.35,1.51,0.82,2.1,1.41c0.59,0.59,1.06,1.29,1.41,2.09
		c0.35,0.8,0.53,1.66,0.53,2.57c0,0.93-0.18,1.8-0.53,2.6c-0.35,0.81-0.82,1.5-1.41,2.09c-0.59,0.59-1.29,1.06-2.11,1.41
		c-0.82,0.35-1.68,0.53-2.58,0.53h-7.24v-4.05h7.24c0.73,0,1.34-0.25,1.84-0.75c0.5-0.5,0.75-1.11,0.75-1.84s-0.25-1.34-0.75-1.84
		c-0.5-0.5-1.11-0.75-1.84-0.75h-0.78c-0.91,0-1.76-0.18-2.57-0.53c-0.8-0.35-1.5-0.82-2.09-1.41c-0.59-0.59-1.06-1.29-1.41-2.09
		c-0.35-0.8-0.53-1.66-0.53-2.57s0.18-1.77,0.53-2.58c0.35-0.82,0.82-1.52,1.41-2.11c0.59-0.59,1.29-1.06,2.09-1.41
		c0.8-0.35,1.66-0.53,2.57-0.53H40.05z"/>
	<path d="M53.21,2.92v22.44h-4.05V2.92H53.21z"/>
	<path d="M68.61,2.92v4.05H64.5v18.39h-4.05V6.97h-4.11V2.92H68.61z"/>
	<path d="M87.34,21.32v4.05H71.77V2.92h9.32v4.05h-5.27v5.17h5.27c0,0.73-0.01,1.41-0.02,2.06c-0.01,0.65-0.02,1.3-0.02,1.96h-5.24
		v5.17H87.34z"/>
	<path d="M106.45,2.92v12.99c0,1.29-0.25,2.52-0.75,3.67c-0.5,1.16-1.18,2.16-2.04,3.01c-0.86,0.85-1.87,1.52-3.01,2.02
		c-1.15,0.5-2.38,0.75-3.69,0.75s-2.54-0.25-3.69-0.75c-1.15-0.5-2.15-1.17-3.01-2.02c-0.86-0.85-1.54-1.85-2.04-3.01
		c-0.5-1.16-0.75-2.38-0.75-3.67V6.7h4.05v9.21c0,0.75,0.14,1.45,0.43,2.11c0.28,0.66,0.67,1.24,1.16,1.73
		c0.49,0.5,1.07,0.89,1.73,1.17c0.67,0.28,1.38,0.42,2.12,0.42s1.45-0.14,2.11-0.42c0.66-0.28,1.23-0.67,1.73-1.17
		c0.5-0.5,0.89-1.08,1.17-1.73s0.43-1.36,0.43-2.11V2.92H106.45z"/>
	<path d="M125.7,25.36h-4.79l-3.37-5.24h-2.01v1.56h-4.05V2.92h6.12c1.18,0,2.29,0.23,3.33,0.68c1.04,0.45,1.95,1.07,2.72,1.85
		c0.77,0.78,1.38,1.7,1.84,2.74c0.45,1.04,0.68,2.15,0.68,3.33c0,1.47-0.39,2.88-1.17,4.23s-1.89,2.46-3.32,3.35L125.7,25.36z
		 M122.13,11.53c0-0.63-0.12-1.23-0.36-1.79c-0.24-0.55-0.56-1.04-0.97-1.45c-0.41-0.41-0.88-0.73-1.43-0.97s-1.13-0.36-1.77-0.36
		h-2.07v9.11h2.07c0.63,0,1.22-0.12,1.77-0.36c0.54-0.24,1.02-0.56,1.43-0.97c0.41-0.41,0.73-0.89,0.97-1.44
		C122.01,12.76,122.13,12.16,122.13,11.53z"/>
</g>
</svg>
