<?xml version="1.0" encoding="utf-8"?>
<!-- Generator: Adobe Illustrator 26.5.0, SVG Export Plug-In . SVG Version: 6.00 Build 0)  -->
<svg version="1.1" id="Calque_1" xmlns="http://www.w3.org/2000/svg" xmlns:xlink="http://www.w3.org/1999/xlink" x="0px" y="0px"
	 viewBox="0 0 64 64" style="enable-background:new 0 0 64 64;" xml:space="preserve">
<g>
	<path d="M50.6,48.7c-3.4,0-6.1-3.2-6.1-7.3c0-4.9,3.2-6.7,6.1-6.7s6.1,1.8,6.1,6.7C56.7,45.5,54,48.7,50.6,48.7z M50.6,36.5
		c-2.7,0-4.3,1.8-4.3,4.9c0,3.1,1.9,5.5,4.3,5.5c2.4,0,4.3-2.4,4.3-5.5C54.9,38.3,53.3,36.5,50.6,36.5z"/>
	<path d="M61.1,62c-0.5,0-0.9-0.4-0.9-0.9v-6.7c0-1.4-4.1-2.9-10-2.9c-2.6,0-5,0.3-6.7,0.9c-0.9,0.3-2.5,1-2.5,2v6.7
		c0,0.5-0.4,0.9-0.9,0.9c-0.5,0-0.9-0.4-0.9-0.9v-6.7c0-1.1,0.6-2.7,3.7-3.7c1.9-0.6,4.5-1,7.2-1c4.4,0,11.8,1,11.8,4.7v6.7
		C62,61.6,61.6,62,61.1,62z"/>
	<path d="M57.9,58.4h-3.2c-0.5,0-0.9-0.4-0.9-0.9c0-0.5,0.4-0.9,0.9-0.9h3.2c0.5,0,0.9,0.4,0.9,0.9C58.8,58,58.4,58.4,57.9,58.4z"/>
	<path d="M57.8,57.5l-1.1-2.1c-0.1-0.3-0.5-0.3-0.7,0l-1.1,2.1H57.8z"/>
	<path d="M51.7,58.6l-0.9,0.9c-0.1,0.1-0.3,0.1-0.3,0l-0.9-0.9c-0.1-0.1-0.2-0.3-0.1-0.4l0.7-4.2l-0.6-0.6c-0.1-0.1-0.1-0.3,0-0.3
		l0.8-0.8c0.2-0.2,0.4-0.2,0.6,0l0.8,0.8c0.1,0.1,0.1,0.3,0,0.3l-0.6,0.6l0.7,4.2C51.9,58.3,51.8,58.5,51.7,58.6z"/>
	<path d="M32,16c-3.4,0-6.1-3.2-6.1-7.3C25.9,3.8,29,2,32,2s6.1,1.8,6.1,6.7C38.1,12.8,35.4,16,32,16z M32,3.8
		c-2.7,0-4.3,1.8-4.3,4.9c0,3.1,1.9,5.5,4.3,5.5c2.4,0,4.3-2.4,4.3-5.5C36.3,5.6,34.7,3.8,32,3.8z"/>
	<path d="M42.5,29.3c-0.5,0-0.9-0.4-0.9-0.9v-6.7c0-1.4-4.1-2.9-10-2.9c-2.6,0-5,0.3-6.7,0.9c-0.9,0.3-2.5,1-2.5,2v6.7
		c0,0.5-0.4,0.9-0.9,0.9c-0.5,0-0.9-0.4-0.9-0.9v-6.7c0-1.1,0.6-2.7,3.7-3.7c1.9-0.6,4.5-1,7.2-1c4.4,0,11.8,1,11.8,4.7v6.7
		C43.4,28.9,43,29.3,42.5,29.3z"/>
	<path d="M39.3,25.8h-3.2c-0.5,0-0.9-0.4-0.9-0.9c0-0.5,0.4-0.9,0.9-0.9h3.2c0.5,0,0.9,0.4,0.9,0.9C40.2,25.3,39.8,25.8,39.3,25.8z"
		/>
	<path d="M39.2,24.8l-1.1-2.1c-0.1-0.3-0.5-0.3-0.7,0l-1.1,2.1H39.2z"/>
	<path d="M33.1,25.9l-0.9,0.9c-0.1,0.1-0.3,0.1-0.3,0l-0.9-0.9c-0.1-0.1-0.2-0.3-0.1-0.4l0.7-4.2l-0.6-0.6c-0.1-0.1-0.1-0.3,0-0.3
		l0.8-0.8c0.2-0.2,0.4-0.2,0.6,0l0.8,0.8c0.1,0.1,0.1,0.3,0,0.3l-0.6,0.6l0.7,4.2C33.3,25.6,33.2,25.8,33.1,25.9z"/>
	<g>
		<path d="M13.4,48.7c-3.4,0-6.1-3.2-6.1-7.3c0-4.9,3.2-6.7,6.1-6.7s6.1,1.8,6.1,6.7C19.5,45.5,16.8,48.7,13.4,48.7z M13.4,36.5
			c-2.7,0-4.3,1.8-4.3,4.9c0,3.1,1.9,5.5,4.3,5.5c2.4,0,4.3-2.4,4.3-5.5C17.7,38.3,16.1,36.5,13.4,36.5z"/>
		<path d="M23.9,62c-0.5,0-0.9-0.4-0.9-0.9v-6.7c0-1.4-4.1-2.9-10-2.9c-2.6,0-5,0.3-6.7,0.9c-0.9,0.3-2.5,1-2.5,2v6.7
			c0,0.5-0.4,0.9-0.9,0.9S2,61.6,2,61.1v-6.7c0-1.1,0.6-2.7,3.7-3.7c1.9-0.6,4.5-1,7.2-1c4.4,0,11.8,1,11.8,4.7v6.7
			C24.8,61.6,24.4,62,23.9,62z"/>
		<path d="M20.7,58.4h-3.2c-0.5,0-0.9-0.4-0.9-0.9c0-0.5,0.4-0.9,0.9-0.9h3.2c0.5,0,0.9,0.4,0.9,0.9C21.6,58,21.2,58.4,20.7,58.4z"
			/>
		<path d="M20.6,57.5l-1.1-2.1c-0.1-0.3-0.5-0.3-0.7,0l-1.1,2.1H20.6z"/>
		<path d="M14.5,58.6l-0.9,0.9c-0.1,0.1-0.3,0.1-0.3,0l-0.9-0.9c-0.1-0.1-0.2-0.3-0.1-0.4l0.7-4.2l-0.6-0.6c-0.1-0.1-0.1-0.3,0-0.3
			l0.8-0.8c0.2-0.2,0.4-0.2,0.6,0l0.8,0.8c0.1,0.1,0.1,0.3,0,0.3L14,53.9l0.7,4.2C14.7,58.3,14.6,58.5,14.5,58.6z"/>
	</g>
	<g>
		<path d="M32,43.5c-0.5,0-0.9-0.4-0.9-0.9v-8.2c0-0.5,0.4-0.9,0.9-0.9c0.5,0,0.9,0.4,0.9,0.9v8.2C32.9,43.1,32.5,43.5,32,43.5z"/>
		<path d="M24.9,47.6c-0.3,0-0.6-0.2-0.8-0.5c-0.3-0.4-0.1-1,0.3-1.2l7.1-4.1c0.4-0.3,1-0.1,1.2,0.3c0.3,0.4,0.1,1-0.3,1.2l-7.1,4.1
			C25.2,47.5,25,47.6,24.9,47.6z"/>
		<path d="M39.1,47.6c-0.2,0-0.3,0-0.5-0.1l-7.1-4.1c-0.4-0.3-0.6-0.8-0.3-1.2c0.3-0.4,0.8-0.6,1.2-0.3l7.1,4.1
			c0.4,0.3,0.6,0.8,0.3,1.2C39.7,47.4,39.4,47.6,39.1,47.6z"/>
	</g>
</g>
</svg>
